<svg width="146" height="24" viewBox="0 0 146 24" fill="none" xmlns="http://www.w3.org/2000/svg">
<path d="M0.00800014 23V0.599998H4.168V19.48H15.88V23H0.00800014ZM29.254 23.32C27.5047 23.32 25.894 23.032 24.422 22.456C22.95 21.88 21.67 21.08 20.582 20.056C19.494 19.0107 18.6513 17.7947 18.054 16.408C17.4567 15 17.158 13.464 17.158 11.8C17.158 10.136 17.4567 8.61067 18.054 7.224C18.6513 5.816 19.494 4.6 20.582 3.576C21.67 2.53067 22.95 1.72 24.422 1.144C25.894 0.567999 27.494 0.279999 29.222 0.279999C30.9713 0.279999 32.5713 0.567999 34.022 1.144C35.494 1.72 36.774 2.53067 37.862 3.576C38.95 4.6 39.7927 5.816 40.39 7.224C40.9873 8.61067 41.286 10.136 41.286 11.8C41.286 13.464 40.9873 15 40.39 16.408C39.7927 17.816 38.95 19.032 37.862 20.056C36.774 21.08 35.494 21.88 34.022 22.456C32.5713 23.032 30.982 23.32 29.254 23.32ZM29.222 19.672C30.3527 19.672 31.398 19.48 32.358 19.096C33.318 18.712 34.15 18.168 34.854 17.464C35.558 16.7387 36.102 15.9067 36.486 14.968C36.8913 14.008 37.094 12.952 37.094 11.8C37.094 10.648 36.8913 9.60267 36.486 8.664C36.102 7.704 35.558 6.872 34.854 6.168C34.15 5.44267 33.318 4.888 32.358 4.504C31.398 4.12 30.3527 3.928 29.222 3.928C28.0913 3.928 27.046 4.12 26.086 4.504C25.1473 4.888 24.3153 5.44267 23.59 6.168C22.886 6.872 22.3313 7.704 21.926 8.664C21.542 9.60267 21.35 10.648 21.35 11.8C21.35 12.9307 21.542 13.976 21.926 14.936C22.3313 15.896 22.886 16.7387 23.59 17.464C24.294 18.168 25.126 18.712 26.086 19.096C27.046 19.48 28.0913 19.672 29.222 19.672ZM56.1595 23.32C54.4102 23.32 52.7995 23.0427 51.3275 22.488C49.8768 21.912 48.6075 21.112 47.5195 20.088C46.4315 19.0427 45.5888 17.816 44.9915 16.408C44.3942 15 44.0955 13.464 44.0955 11.8C44.0955 10.136 44.3942 8.6 44.9915 7.192C45.5888 5.784 46.4315 4.568 47.5195 3.544C48.6288 2.49867 49.9195 1.69867 51.3915 1.144C52.8635 0.567999 54.4742 0.279999 56.2235 0.279999C58.1222 0.279999 59.8288 0.589332 61.3435 1.208C62.8795 1.82667 64.1702 2.73333 65.2155 3.928L62.5915 6.488C61.7168 5.61333 60.7675 4.97333 59.7435 4.568C58.7408 4.14133 57.6315 3.928 56.4155 3.928C55.2422 3.928 54.1542 4.12 53.1515 4.504C52.1488 4.888 51.2848 5.432 50.5595 6.136C49.8342 6.84 49.2688 7.672 48.8635 8.632C48.4795 9.592 48.2875 10.648 48.2875 11.8C48.2875 12.9307 48.4795 13.976 48.8635 14.936C49.2688 15.896 49.8342 16.7387 50.5595 17.464C51.2848 18.168 52.1382 18.712 53.1195 19.096C54.1008 19.48 55.1888 19.672 56.3835 19.672C57.4928 19.672 58.5595 19.5013 59.5835 19.16C60.6288 18.7973 61.6208 18.2 62.5595 17.368L64.9275 20.472C63.7542 21.4107 62.3888 22.1253 60.8315 22.616C59.2955 23.0853 57.7382 23.32 56.1595 23.32ZM60.9915 19.928V11.544H64.9275V20.472L60.9915 19.928ZM80.9103 23.32C79.1609 23.32 77.5503 23.032 76.0783 22.456C74.6063 21.88 73.3263 21.08 72.2383 20.056C71.1503 19.0107 70.3076 17.7947 69.7103 16.408C69.1129 15 68.8143 13.464 68.8143 11.8C68.8143 10.136 69.1129 8.61067 69.7103 7.224C70.3076 5.816 71.1503 4.6 72.2383 3.576C73.3263 2.53067 74.6063 1.72 76.0783 1.144C77.5503 0.567999 79.1503 0.279999 80.8783 0.279999C82.6276 0.279999 84.2276 0.567999 85.6783 1.144C87.1503 1.72 88.4303 2.53067 89.5183 3.576C90.6063 4.6 91.4489 5.816 92.0463 7.224C92.6436 8.61067 92.9423 10.136 92.9423 11.8C92.9423 13.464 92.6436 15 92.0463 16.408C91.4489 17.816 90.6063 19.032 89.5183 20.056C88.4303 21.08 87.1503 21.88 85.6783 22.456C84.2276 23.032 82.6383 23.32 80.9103 23.32ZM80.8783 19.672C82.0089 19.672 83.0543 19.48 84.0143 19.096C84.9743 18.712 85.8063 18.168 86.5103 17.464C87.2143 16.7387 87.7583 15.9067 88.1423 14.968C88.5476 14.008 88.7503 12.952 88.7503 11.8C88.7503 10.648 88.5476 9.60267 88.1423 8.664C87.7583 7.704 87.2143 6.872 86.5103 6.168C85.8063 5.44267 84.9743 4.888 84.0143 4.504C83.0543 4.12 82.0089 3.928 80.8783 3.928C79.7476 3.928 78.7023 4.12 77.7423 4.504C76.8036 4.888 75.9716 5.44267 75.2463 6.168C74.5423 6.872 73.9876 7.704 73.5823 8.664C73.1983 9.60267 73.0063 10.648 73.0063 11.8C73.0063 12.9307 73.1983 13.976 73.5823 14.936C73.9876 15.896 74.5423 16.7387 75.2463 17.464C75.9503 18.168 76.7823 18.712 77.7423 19.096C78.7023 19.48 79.7476 19.672 80.8783 19.672ZM101.583 23V4.12H94.1593V0.599998H113.167V4.12H105.743V23H101.583ZM116.289 23V0.599998H120.449V23H116.289ZM126.508 23V0.599998H135.724C137.708 0.599998 139.404 0.919999 140.812 1.56C142.241 2.2 143.34 3.11733 144.108 4.312C144.876 5.50667 145.26 6.92533 145.26 8.568C145.26 10.2107 144.876 11.6293 144.108 12.824C143.34 14.0187 142.241 14.936 140.812 15.576C139.404 16.216 137.708 16.536 135.724 16.536H128.812L130.668 14.584V23H126.508ZM130.668 15.032L128.812 13.016H135.532C137.367 13.016 138.743 12.632 139.66 11.864C140.599 11.0747 141.068 9.976 141.068 8.568C141.068 7.13867 140.599 6.04 139.66 5.272C138.743 4.504 137.367 4.12 135.532 4.12H128.812L130.668 2.072V15.032Z" fill="white"/>
</svg>
